<svg width="22" height="22" viewBox="0 0 22 22" fill="none" xmlns="http://www.w3.org/2000/svg">
<g filter="url(#filter0_d_6119_215)">
<path d="M17.0306 8.53061L12.5306 13.0306C12.3897 13.1715 12.1986 13.2507 11.9994 13.2507C11.8001 13.2507 11.609 13.1715 11.4681 13.0306C11.3272 12.8897 11.2481 12.6986 11.2481 12.4994C11.2481 12.3001 11.3272 12.109 11.4681 11.9681L14.6875 8.74999H5.5C5.30109 8.74999 5.11032 8.67097 4.96967 8.53032C4.82902 8.38967 4.75 8.1989 4.75 7.99999C4.75 7.80108 4.82902 7.61031 4.96967 7.46966C5.11032 7.329 5.30109 7.24999 5.5 7.24999H14.6875L11.4694 4.02999C11.3285 3.88909 11.2493 3.69799 11.2493 3.49874C11.2493 3.29948 11.3285 3.10838 11.4694 2.96749C11.6103 2.82659 11.8014 2.74744 12.0006 2.74744C12.1999 2.74744 12.391 2.82659 12.5319 2.96749L17.0319 7.46749C17.1018 7.53726 17.1573 7.62016 17.1951 7.71142C17.2329 7.80269 17.2523 7.90052 17.2522 7.99931C17.252 8.09809 17.2324 8.19588 17.1944 8.28706C17.1564 8.37824 17.1007 8.46101 17.0306 8.53061Z" fill="#CBD5E1"/>
</g>
<defs>
<filter id="filter0_d_6119_215" x="-1" y="0" width="24" height="24" filterUnits="userSpaceOnUse" color-interpolation-filters="sRGB">
<feFlood flood-opacity="0" result="BackgroundImageFix"/>
<feColorMatrix in="SourceAlpha" type="matrix" values="0 0 0 0 0 0 0 0 0 0 0 0 0 0 0 0 0 0 127 0" result="hardAlpha"/>
<feOffset dy="4"/>
<feGaussianBlur stdDeviation="2"/>
<feComposite in2="hardAlpha" operator="out"/>
<feColorMatrix type="matrix" values="0 0 0 0 0 0 0 0 0 0 0 0 0 0 0 0 0 0 0.25 0"/>
<feBlend mode="normal" in2="BackgroundImageFix" result="effect1_dropShadow_6119_215"/>
<feBlend mode="normal" in="SourceGraphic" in2="effect1_dropShadow_6119_215" result="shape"/>
</filter>
</defs>
</svg>
